<svg width="272" height="546" viewBox="0 0 272 546" fill="none" xmlns="http://www.w3.org/2000/svg">
<path d="M267.342 86.1933H266.828V32.3362C266.828 14.4771 252.305 6.10352e-05 234.389 6.10352e-05H37.7664C19.851 6.10352e-05 5.3277 14.4771 5.3277 32.3362V86.1933H4.81267C2.47388 86.1933 0.578125 88.083 0.578125 90.4147V127.674C0.578125 130.006 2.47388 131.895 4.81267 131.895H5.3277V140.78H4.81267C2.47388 140.78 0.578125 142.67 0.578125 145.002V182.257C0.578125 184.593 2.47388 186.482 4.81267 186.482H5.3277V512.762C5.3277 530.621 19.851 545.097 37.7664 545.097H234.389C252.305 545.097 266.828 530.621 266.828 512.762V126.098H267.342C269.683 126.098 271.578 124.208 271.578 121.876V90.4147C271.578 88.083 269.683 86.1933 267.342 86.1933Z" fill="#667085"/>
<mask id="mask0_13661_143897" style="mask-type:alpha" maskUnits="userSpaceOnUse" x="15" y="8" width="243" height="529">
<path opacity="0.5" d="M41.4693 536.838H230.86C245.37 536.838 257.133 525.092 257.133 510.602V34.4969C257.133 20.0051 245.37 8.25867 230.86 8.25867H41.4693C26.9595 8.25867 15.1977 20.0051 15.1977 34.4969V510.602C15.1977 525.092 26.9595 536.838 41.4693 536.838Z" fill="#B7F0C1"/>
</mask>
<g mask="url(#mask0_13661_143897)">
<rect width="371.657" height="650.4" transform="translate(-49.75 -81.2998)" fill="#FDFDFC"/>
<g clip-path="url(#clip0_13661_143897)">
<path d="M43.1643 -81.2998H-49.75V11.6145H43.1643V-81.2998Z" fill="#CDFFAF"/>
<path d="M43.1643 11.6145H-3.29286L19.9357 -11.6141L43.1643 -34.8427V-81.2998L-3.29286 -34.8427L-49.75 -81.2998V-34.8427L-26.5214 -11.6141L-3.29286 11.6145H43.1643Z" fill="#D5F393"/>
</g>
<g clip-path="url(#clip1_13661_143897)">
<path d="M43.1643 11.6143H-49.75V104.529H43.1643V11.6143Z" fill="#CDFFAF"/>
<path d="M43.1643 104.529H-3.29286L19.9357 81.3L43.1643 58.0714V11.6143L-3.29286 58.0714L-49.75 11.6143V58.0714L-26.5214 81.3L-3.29286 104.529H43.1643Z" fill="#D5F393"/>
</g>
<g clip-path="url(#clip2_13661_143897)">
<path d="M43.1643 104.529H-49.75V197.443H43.1643V104.529Z" fill="#CDFFAF"/>
<path d="M43.1643 197.443H-3.29286L19.9357 174.215L43.1643 150.986V104.529L-3.29286 150.986L-49.75 104.529V150.986L-26.5214 174.215L-3.29286 197.443H43.1643Z" fill="#D5F393"/>
</g>
<g clip-path="url(#clip3_13661_143897)">
<path d="M43.1643 197.443H-49.75V290.357H43.1643V197.443Z" fill="#CDFFAF"/>
<path d="M43.1643 290.357H-3.29286L19.9357 267.129L43.1643 243.9V197.443L-3.29286 243.9L-49.75 197.443V243.9L-26.5214 267.129L-3.29286 290.357H43.1643Z" fill="#D5F393"/>
</g>
<g clip-path="url(#clip4_13661_143897)">
<path d="M43.1643 290.357H-49.75V383.272H43.1643V290.357Z" fill="#CDFFAF"/>
<path d="M43.1643 383.272H-3.29286L19.9357 360.043L43.1643 336.815V290.357L-3.29286 336.815L-49.75 290.357V336.815L-26.5214 360.043L-3.29286 383.272H43.1643Z" fill="#D5F393"/>
</g>
<g clip-path="url(#clip5_13661_143897)">
<path d="M43.1643 383.271H-49.75V476.186H43.1643V383.271Z" fill="#CDFFAF"/>
<path d="M43.1643 476.186H-3.29286L19.9357 452.957L43.1643 429.729V383.271L-3.29286 429.729L-49.75 383.271V429.729L-26.5214 452.957L-3.29286 476.186H43.1643Z" fill="#D5F393"/>
</g>
<g clip-path="url(#clip6_13661_143897)">
<path d="M43.1643 476.186H-49.75V569.1H43.1643V476.186Z" fill="#CDFFAF"/>
<path d="M43.1643 569.1H-3.29286L19.9357 545.871L43.1643 522.643V476.186L-3.29286 522.643L-49.75 476.186V522.643L-26.5214 545.871L-3.29286 569.1H43.1643Z" fill="#D5F393"/>
</g>
<g clip-path="url(#clip7_13661_143897)">
<path d="M136.078 -81.2998H43.1641V11.6145H136.078V-81.2998Z" fill="#CDFFAF"/>
<path d="M136.078 11.6145H89.6212L112.85 -11.6141L136.078 -34.8427V-81.2998L89.6212 -34.8427L43.1641 -81.2998V-34.8427L66.3926 -11.6141L89.6212 11.6145H136.078Z" fill="#D5F393"/>
</g>
<g clip-path="url(#clip8_13661_143897)">
<path d="M136.078 11.6143H43.1641V104.529H136.078V11.6143Z" fill="#CDFFAF"/>
<path d="M136.078 104.529H89.6212L112.85 81.3L136.078 58.0714V11.6143L89.6212 58.0714L43.1641 11.6143V58.0714L66.3926 81.3L89.6212 104.529H136.078Z" fill="#D5F393"/>
</g>
<g clip-path="url(#clip9_13661_143897)">
<path d="M136.078 104.529H43.1641V197.443H136.078V104.529Z" fill="#CDFFAF"/>
<path d="M136.078 197.443H89.6212L112.85 174.215L136.078 150.986V104.529L89.6212 150.986L43.1641 104.529V150.986L66.3926 174.215L89.6212 197.443H136.078Z" fill="#D5F393"/>
</g>
<g clip-path="url(#clip10_13661_143897)">
<path d="M136.078 197.443H43.1641V290.357H136.078V197.443Z" fill="#CDFFAF"/>
<path d="M136.078 290.357H89.6212L112.85 267.129L136.078 243.9V197.443L89.6212 243.9L43.1641 197.443V243.9L66.3926 267.129L89.6212 290.357H136.078Z" fill="#D5F393"/>
</g>
<g clip-path="url(#clip11_13661_143897)">
<path d="M136.078 290.357H43.1641V383.272H136.078V290.357Z" fill="#CDFFAF"/>
<path d="M136.078 383.272H89.6212L112.85 360.043L136.078 336.815V290.357L89.6212 336.815L43.1641 290.357V336.815L66.3926 360.043L89.6212 383.272H136.078Z" fill="#D5F393"/>
</g>
<g clip-path="url(#clip12_13661_143897)">
<path d="M136.078 383.271H43.1641V476.186H136.078V383.271Z" fill="#CDFFAF"/>
<path d="M136.078 476.186H89.6212L112.85 452.957L136.078 429.729V383.271L89.6212 429.729L43.1641 383.271V429.729L66.3926 452.957L89.6212 476.186H136.078Z" fill="#D5F393"/>
</g>
<g clip-path="url(#clip13_13661_143897)">
<path d="M136.078 476.186H43.1641V569.1H136.078V476.186Z" fill="#CDFFAF"/>
<path d="M136.078 569.1H89.6212L112.85 545.871L136.078 522.643V476.186L89.6212 522.643L43.1641 476.186V522.643L66.3926 545.871L89.6212 569.1H136.078Z" fill="#D5F393"/>
</g>
<g clip-path="url(#clip14_13661_143897)">
<path d="M228.994 -81.2998H136.08V11.6145H228.994V-81.2998Z" fill="#CDFFAF"/>
<path d="M228.994 11.6145H182.537L205.766 -11.6141L228.994 -34.8427V-81.2998L182.537 -34.8427L136.08 -81.2998V-34.8427L159.309 -11.6141L182.537 11.6145H228.994Z" fill="#D5F393"/>
</g>
<g clip-path="url(#clip15_13661_143897)">
<path d="M228.994 11.6143H136.08V104.529H228.994V11.6143Z" fill="#CDFFAF"/>
<path d="M228.994 104.529H182.537L205.766 81.3L228.994 58.0714V11.6143L182.537 58.0714L136.08 11.6143V58.0714L159.309 81.3L182.537 104.529H228.994Z" fill="#D5F393"/>
</g>
<g clip-path="url(#clip16_13661_143897)">
<path d="M228.994 104.529H136.08V197.443H228.994V104.529Z" fill="#CDFFAF"/>
<path d="M228.994 197.443H182.537L205.766 174.215L228.994 150.986V104.529L182.537 150.986L136.08 104.529V150.986L159.309 174.215L182.537 197.443H228.994Z" fill="#D5F393"/>
</g>
<g clip-path="url(#clip17_13661_143897)">
<path d="M228.994 197.443H136.08V290.357H228.994V197.443Z" fill="#CDFFAF"/>
<path d="M228.994 290.357H182.537L205.766 267.129L228.994 243.9V197.443L182.537 243.9L136.08 197.443V243.9L159.309 267.129L182.537 290.357H228.994Z" fill="#D5F393"/>
</g>
<g clip-path="url(#clip18_13661_143897)">
<path d="M228.994 290.357H136.08V383.272H228.994V290.357Z" fill="#CDFFAF"/>
<path d="M228.994 383.272H182.537L205.766 360.043L228.994 336.815V290.357L182.537 336.815L136.08 290.357V336.815L159.309 360.043L182.537 383.272H228.994Z" fill="#D5F393"/>
</g>
<g clip-path="url(#clip19_13661_143897)">
<path d="M228.994 383.271H136.08V476.186H228.994V383.271Z" fill="#CDFFAF"/>
<path d="M228.994 476.186H182.537L205.766 452.957L228.994 429.729V383.271L182.537 429.729L136.08 383.271V429.729L159.309 452.957L182.537 476.186H228.994Z" fill="#D5F393"/>
</g>
<g clip-path="url(#clip20_13661_143897)">
<path d="M228.994 476.186H136.08V569.1H228.994V476.186Z" fill="#CDFFAF"/>
<path d="M228.994 569.1H182.537L205.766 545.871L228.994 522.643V476.186L182.537 522.643L136.08 476.186V522.643L159.309 545.871L182.537 569.1H228.994Z" fill="#D5F393"/>
</g>
<g clip-path="url(#clip21_13661_143897)">
<path d="M321.908 -81.2998H228.994V11.6145H321.908V-81.2998Z" fill="#CDFFAF"/>
<path d="M321.908 11.6145H275.451L298.68 -11.6141L321.908 -34.8427V-81.2998L275.451 -34.8427L228.994 -81.2998V-34.8427L252.223 -11.6141L275.451 11.6145H321.908Z" fill="#D5F393"/>
</g>
<g clip-path="url(#clip22_13661_143897)">
<path d="M321.908 11.6143H228.994V104.529H321.908V11.6143Z" fill="#CDFFAF"/>
<path d="M321.908 104.529H275.451L298.68 81.3L321.908 58.0714V11.6143L275.451 58.0714L228.994 11.6143V58.0714L252.223 81.3L275.451 104.529H321.908Z" fill="#D5F393"/>
</g>
<g clip-path="url(#clip23_13661_143897)">
<path d="M321.908 104.529H228.994V197.443H321.908V104.529Z" fill="#CDFFAF"/>
<path d="M321.908 197.443H275.451L298.68 174.215L321.908 150.986V104.529L275.451 150.986L228.994 104.529V150.986L252.223 174.215L275.451 197.443H321.908Z" fill="#D5F393"/>
</g>
<g clip-path="url(#clip24_13661_143897)">
<path d="M321.908 197.443H228.994V290.357H321.908V197.443Z" fill="#CDFFAF"/>
<path d="M321.908 290.357H275.451L298.68 267.129L321.908 243.9V197.443L275.451 243.9L228.994 197.443V243.9L252.223 267.129L275.451 290.357H321.908Z" fill="#D5F393"/>
</g>
<g clip-path="url(#clip25_13661_143897)">
<path d="M321.908 290.357H228.994V383.272H321.908V290.357Z" fill="#CDFFAF"/>
<path d="M321.908 383.272H275.451L298.68 360.043L321.908 336.815V290.357L275.451 336.815L228.994 290.357V336.815L252.223 360.043L275.451 383.272H321.908Z" fill="#D5F393"/>
</g>
<g clip-path="url(#clip26_13661_143897)">
<path d="M321.908 383.271H228.994V476.186H321.908V383.271Z" fill="#CDFFAF"/>
<path d="M321.908 476.186H275.451L298.68 452.957L321.908 429.729V383.271L275.451 429.729L228.994 383.271V429.729L252.223 452.957L275.451 476.186H321.908Z" fill="#D5F393"/>
</g>
<g clip-path="url(#clip27_13661_143897)">
<path d="M321.908 476.186H228.994V569.1H321.908V476.186Z" fill="#CDFFAF"/>
<path d="M321.908 569.1H275.451L298.68 545.871L321.908 522.643V476.186L275.451 522.643L228.994 476.186V522.643L252.223 545.871L275.451 569.1H321.908Z" fill="#D5F393"/>
</g>
</g>
<g clip-path="url(#clip28_13661_143897)">
<rect x="13.0312" y="8.51709" width="243.871" height="528.063" rx="23.2286" fill="#FDFDFC"/>
</g>
<rect x="0.785156" y="116.917" width="6.19429" height="49.5543" fill="#667085"/>
<path d="M32.3641 24.437C32.1439 24.437 31.9206 24.4049 31.6943 24.3406C31.4679 24.2762 31.2538 24.1797 31.052 24.0511C30.8562 23.9166 30.6819 23.747 30.529 23.5423C30.4561 23.4449 30.3923 23.3388 30.3375 23.2241C30.2305 23 30.3651 22.7471 30.5971 22.6584C30.8688 22.5545 31.1629 22.7188 31.3208 22.9632C31.3831 23.0598 31.4556 23.1475 31.5383 23.2265C31.7524 23.4195 32.0246 23.516 32.3549 23.516C32.5201 23.516 32.676 23.4897 32.8229 23.4371C32.9697 23.3786 33.0951 23.3026 33.1991 23.209C33.303 23.1096 33.3856 22.9926 33.4468 22.8581C33.508 22.7236 33.5386 22.5745 33.5386 22.4108C33.5386 22.247 33.508 22.0979 33.4468 21.9634C33.3917 21.8231 33.3122 21.7032 33.2082 21.6038C33.1042 21.5044 32.9788 21.4283 32.832 21.3757C32.6852 21.3172 32.5262 21.288 32.3549 21.288C32.153 21.288 31.9695 21.3318 31.8044 21.4196C31.5234 21.5588 31.1931 21.6596 30.9046 21.5368L30.8881 21.5298C30.5886 21.4022 30.4099 21.0916 30.4502 20.7686L30.5892 19.6538C30.6858 18.8786 31.3447 18.2968 32.1258 18.2968H33.7379C33.9825 18.2968 34.1808 18.4951 34.1808 18.7398C34.1808 18.9844 33.9825 19.1828 33.7379 19.1828H32.4074C31.9504 19.1828 31.5624 19.5179 31.496 19.9701L31.3875 20.7084C31.3845 20.729 31.3968 20.7488 31.4167 20.7551C31.4296 20.7592 31.4438 20.7569 31.4549 20.7489C31.5854 20.655 31.7356 20.5744 31.9053 20.5073C32.0827 20.4371 32.2998 20.402 32.5568 20.402C32.8198 20.402 33.0706 20.4517 33.3092 20.5512C33.5538 20.6447 33.7679 20.7792 33.9515 20.9547C34.135 21.1301 34.2818 21.3406 34.3919 21.5862C34.502 21.8318 34.557 22.1038 34.557 22.402C34.557 22.6944 34.502 22.9663 34.3919 23.2178C34.2818 23.4634 34.1289 23.6768 33.9331 23.8581C33.7374 24.0394 33.5049 24.1827 33.2358 24.2879C32.9727 24.3873 32.6822 24.437 32.3641 24.437Z" fill="#98A2B3"/>
<path d="M36.1486 24.3493C35.9528 24.3493 35.7846 24.285 35.6439 24.1564C35.5094 24.0219 35.4421 23.861 35.4421 23.6739C35.4421 23.4868 35.5094 23.326 35.6439 23.1915C35.7846 23.057 35.9528 22.9897 36.1486 22.9897C36.3443 22.9897 36.5126 23.057 36.6532 23.1915C36.7939 23.326 36.8643 23.4868 36.8643 23.6739C36.8643 23.861 36.7939 24.0219 36.6532 24.1564C36.5126 24.285 36.3443 24.3493 36.1486 24.3493ZM36.1486 21.2704C35.9528 21.2704 35.7846 21.2061 35.6439 21.0775C35.5094 20.943 35.4421 20.7821 35.4421 20.595C35.4421 20.4079 35.5094 20.25 35.6439 20.1213C35.7846 19.9868 35.9528 19.9196 36.1486 19.9196C36.3443 19.9196 36.5126 19.9868 36.6532 20.1213C36.7939 20.25 36.8643 20.4079 36.8643 20.595C36.8643 20.7821 36.7939 20.943 36.6532 21.0775C36.5126 21.2061 36.3443 21.2704 36.1486 21.2704Z" fill="#98A2B3"/>
<path d="M39.7315 24.2967C39.4502 24.2967 39.2222 24.0687 39.2222 23.7875V20.2405C39.2222 19.8746 38.8504 19.6261 38.5124 19.7661L38.4697 19.7838C38.2391 19.8793 37.9741 19.7757 37.8694 19.5491C37.7605 19.3138 37.8651 19.0348 38.1018 18.929L39.3995 18.3488C39.4762 18.3145 39.5593 18.2968 39.6433 18.2968C39.9732 18.2968 40.2407 18.5643 40.2407 18.8942V23.7875C40.2407 24.0687 40.0127 24.2967 39.7315 24.2967Z" fill="#98A2B3"/>
<path d="M43.4916 24.437C43.2714 24.437 43.0512 24.4078 42.8309 24.3493C42.6107 24.2909 42.4028 24.2002 42.207 24.0774C42.0174 23.9488 41.8461 23.7879 41.6932 23.595C41.6283 23.5131 41.57 23.4244 41.5183 23.3288C41.394 23.0989 41.5308 22.8284 41.7739 22.7323C42.0538 22.6216 42.3564 22.7913 42.5335 23.0347C42.5937 23.1174 42.6623 23.1901 42.7392 23.2529C42.9472 23.4224 43.198 23.5072 43.4916 23.5072C43.6384 23.5072 43.7791 23.4839 43.9137 23.4371C44.0544 23.3903 44.1767 23.326 44.2807 23.2441C44.3847 23.1564 44.4673 23.057 44.5284 22.9458C44.5896 22.8289 44.6202 22.7002 44.6202 22.5599C44.6202 22.4195 44.5865 22.2909 44.5193 22.1739C44.4581 22.057 44.3725 21.9576 44.2623 21.8757C44.1522 21.7938 44.0207 21.7295 43.8678 21.6827C43.721 21.6359 43.5619 21.6125 43.3907 21.6125H43.301C43.0516 21.6125 42.8493 21.4103 42.8493 21.1608C42.8493 20.9113 43.0516 20.709 43.301 20.709H43.3356C43.4824 20.709 43.617 20.6915 43.7393 20.6564C43.8678 20.6155 43.981 20.5599 44.0788 20.4898C44.1767 20.4196 44.2532 20.3319 44.3082 20.2266C44.3633 20.1155 44.3908 19.9898 44.3908 19.8494C44.3908 19.6097 44.299 19.4225 44.1155 19.288C43.9381 19.1477 43.7118 19.0775 43.4365 19.0775C43.2836 19.0775 43.149 19.098 43.0328 19.1389C42.9227 19.1798 42.8279 19.2354 42.7484 19.3056C42.6688 19.3757 42.6016 19.4547 42.5465 19.5424C42.4679 19.6739 42.3083 19.7489 42.1662 19.6916L41.937 19.5992C41.6875 19.4987 41.5608 19.2163 41.7159 18.9966C41.7175 18.9943 41.7191 18.992 41.7207 18.9898C41.8247 18.8377 41.9562 18.7003 42.1152 18.5775C42.2743 18.4547 42.4609 18.3553 42.675 18.2793C42.8952 18.1974 43.149 18.1565 43.4365 18.1565C43.7302 18.1565 43.9993 18.1974 44.244 18.2793C44.4887 18.3611 44.6997 18.4752 44.8771 18.6214C45.0545 18.7676 45.1921 18.9401 45.29 19.1389C45.3879 19.3377 45.4368 19.5541 45.4368 19.788C45.4368 19.9576 45.4124 20.1126 45.3634 20.2529C45.3206 20.3933 45.2594 20.519 45.1799 20.6301C45.1004 20.7354 45.0117 20.826 44.9138 20.902C44.823 20.9726 44.7295 21.033 44.6334 21.0834C44.6197 21.0906 44.611 21.1048 44.611 21.1202C44.611 21.1368 44.621 21.1517 44.6362 21.1583C44.7678 21.2153 44.894 21.2877 45.0147 21.3757C45.1432 21.4634 45.2533 21.5687 45.3451 21.6915C45.4429 21.8143 45.5194 21.9546 45.5745 22.1125C45.6295 22.2646 45.657 22.4312 45.657 22.6125C45.657 22.8757 45.602 23.1213 45.4919 23.3493C45.3818 23.5716 45.2288 23.7645 45.0331 23.9283C44.8435 24.0862 44.6171 24.209 44.3541 24.2967C44.0911 24.3903 43.8036 24.437 43.4916 24.437Z" fill="#98A2B3"/>
<path d="M49.2183 24.2967C48.932 24.2967 48.6999 24.0646 48.6999 23.7783V19.5647C48.6999 18.7094 49.3932 18.0161 50.2485 18.0161H50.9755C51.2691 18.0161 51.5443 18.0629 51.8013 18.1565C52.0643 18.25 52.2937 18.3816 52.4894 18.5512C52.6852 18.7208 52.8381 18.9255 52.9482 19.1652C53.0644 19.3991 53.1225 19.6594 53.1225 19.9459C53.1225 20.2266 53.0644 20.4868 52.9482 20.7266C52.8381 20.9605 52.6852 21.1623 52.4894 21.3318C52.2937 21.5014 52.0643 21.633 51.8013 21.7266C51.5443 21.8201 51.2691 21.8669 50.9755 21.8669H50.9516C50.2807 21.8669 49.7367 22.4108 49.7367 23.0818V23.7783C49.7367 24.0646 49.5046 24.2967 49.2183 24.2967ZM51.003 20.9196C51.1743 20.9196 51.3272 20.8933 51.4618 20.8406C51.5963 20.7821 51.7095 20.7061 51.8013 20.6126C51.893 20.519 51.9634 20.4137 52.0123 20.2968C52.0612 20.1798 52.0857 20.0629 52.0857 19.9459C52.0857 19.8231 52.0612 19.7032 52.0123 19.5863C51.9634 19.4693 51.893 19.367 51.8013 19.2792C51.7095 19.1857 51.5963 19.1097 51.4618 19.0512C51.3272 18.9927 51.1743 18.9635 51.003 18.9635H50.7148C50.1746 18.9635 49.7367 19.4014 49.7367 19.9415C49.7367 20.4817 50.1746 20.9196 50.7148 20.9196H51.003Z" fill="#98A2B3"/>
<path d="M54.0046 18.6784C54.0046 18.3126 54.3011 18.0161 54.6669 18.0161C54.8993 18.0161 55.1147 18.1379 55.2344 18.3371L57.1743 21.5626C57.1831 21.5773 57.1989 21.5862 57.216 21.5862C57.2331 21.5862 57.2489 21.5773 57.2577 21.5626L59.1993 18.3342C59.318 18.1368 59.5315 18.0161 59.7619 18.0161C60.1244 18.0161 60.4183 18.31 60.4183 18.6726V23.7829C60.4183 24.0666 60.1883 24.2967 59.9045 24.2967C59.6207 24.2967 59.3906 24.0666 59.3906 23.7829V20.8845L59.4438 19.8676C59.4448 19.8482 59.4294 19.8319 59.4099 19.8319C59.398 19.8319 59.3869 19.8382 59.3808 19.8484L57.6763 22.6999C57.5786 22.8633 57.4022 22.9634 57.2118 22.9634C57.021 22.9634 56.8443 22.8629 56.7467 22.6989L55.0513 19.8485C55.0451 19.8382 55.0341 19.8319 55.0221 19.8319C55.0027 19.8319 54.9872 19.8482 54.9882 19.8676L55.0414 20.8845V23.7783C55.0414 24.0646 54.8093 24.2967 54.523 24.2967C54.2367 24.2967 54.0046 24.0646 54.0046 23.7783V18.6784Z" fill="#98A2B3"/>
<g clip-path="url(#clip29_13661_143897)">
<path d="M183.632 17.2868C186.05 17.2868 188.01 19.247 188.01 21.6648C188.01 24.0826 186.05 26.0427 183.632 26.0427C181.214 26.0425 179.254 24.0825 179.254 21.6648C179.254 19.2472 181.214 17.2871 183.632 17.2868ZM183.632 18.1628C181.698 18.163 180.13 19.7307 180.13 21.6648C180.13 23.5989 181.698 25.1675 183.632 25.1677C185.566 25.1677 187.135 23.599 187.135 21.6648C187.135 19.7306 185.566 18.1628 183.632 18.1628ZM183.632 19.0378C183.874 19.0378 184.07 19.2345 184.07 19.4763V21.4304L185.189 22.1765C185.389 22.3106 185.444 22.5818 185.31 22.7829C185.176 22.984 184.904 23.0388 184.703 22.905L183.584 22.1589C183.464 22.0789 183.366 21.9704 183.298 21.8435C183.23 21.7165 183.194 21.5744 183.194 21.4304V19.4763C183.194 19.2346 183.39 19.038 183.632 19.0378ZM180.258 16.5398C180.429 16.3688 180.706 16.369 180.877 16.5398C181.048 16.7107 181.048 16.9879 180.877 17.1589L179.564 18.4724C179.393 18.6431 179.115 18.6433 178.944 18.4724C178.774 18.3015 178.774 18.0242 178.944 17.8532L180.258 16.5398ZM186.388 16.5398C186.559 16.369 186.836 16.3689 187.007 16.5398L188.319 17.8532C188.49 18.0242 188.49 18.3014 188.319 18.4724C188.148 18.6431 187.871 18.6433 187.7 18.4724L186.388 17.1589C186.217 16.9879 186.217 16.7107 186.388 16.5398Z" fill="#98A2B3"/>
</g>
<path d="M220.876 22.5752C221.195 22.5752 221.454 22.8342 221.454 23.1533V24.4375C221.454 24.7566 221.195 25.0156 220.876 25.0156C220.557 25.0155 220.299 24.7565 220.299 24.4375V23.1533C220.299 22.8343 220.557 22.5753 220.876 22.5752ZM227.297 17.4385C227.616 17.4385 227.875 17.6974 227.875 18.0166V24.4375C227.875 24.7566 227.616 25.0156 227.297 25.0156C226.978 25.0156 226.719 24.7566 226.719 24.4375V18.0166C226.719 17.6975 226.978 17.4385 227.297 17.4385ZM222.995 20.8408C223.314 20.8408 223.573 21.0999 223.573 21.4189V24.4365C223.573 24.7557 223.314 25.0146 222.995 25.0146C222.676 25.0146 222.417 24.7556 222.417 24.4365V21.4189C222.417 21.0999 222.676 20.8409 222.995 20.8408ZM225.178 19.1719C225.497 19.1719 225.756 19.4308 225.756 19.75V24.4365C225.756 24.7557 225.497 25.0146 225.178 25.0146C224.859 25.0145 224.601 24.7556 224.601 24.4365V19.75C224.601 19.4309 224.859 19.172 225.178 19.1719Z" fill="#98A2B3"/>
<g clip-path="url(#clip30_13661_143897)">
<path d="M210.598 23.2817C210.952 23.282 211.239 23.5689 211.239 23.9233C211.239 24.2778 210.952 24.5657 210.598 24.5659C210.243 24.5659 209.955 24.278 209.955 23.9233C209.955 23.5688 210.243 23.2817 210.598 23.2817ZM210.703 21.1987C211.513 21.2435 212.235 21.619 212.736 22.1899C212.923 22.403 212.902 22.7274 212.689 22.9146C212.476 23.1017 212.151 23.0809 211.964 22.8677C211.616 22.4715 211.108 22.2223 210.54 22.2222H210.539C210.27 22.2219 210.003 22.279 209.758 22.3901C209.512 22.5014 209.293 22.6638 209.115 22.8667C208.928 23.0802 208.604 23.1023 208.391 22.9155C208.177 22.7288 208.155 22.4044 208.342 22.1909C208.616 21.8777 208.954 21.6264 209.333 21.4546C209.712 21.2828 210.124 21.1944 210.54 21.1948L210.703 21.1987ZM210.784 19.2739C211.355 19.3022 211.917 19.4319 212.443 19.6567C213.045 19.9137 213.589 20.29 214.041 20.7632C214.237 20.9683 214.23 21.2938 214.024 21.4898C213.819 21.6856 213.495 21.6781 213.299 21.4731C212.943 21.1004 212.514 20.8035 212.04 20.6011C211.566 20.3987 211.055 20.2948 210.54 20.2954H210.539C210.024 20.2948 209.513 20.3987 209.039 20.6011C208.565 20.8034 208.137 21.1005 207.781 21.4731C207.585 21.6783 207.26 21.6857 207.055 21.4898C206.85 21.2938 206.842 20.9683 207.038 20.7632C207.49 20.29 208.034 19.9137 208.636 19.6567C209.237 19.3999 209.885 19.2674 210.539 19.2681L210.54 19.7817V19.2681L210.784 19.2739ZM210.89 17.3511C212.626 17.4395 214.19 18.1822 215.34 19.3364C215.54 19.5375 215.539 19.8628 215.338 20.063C215.137 20.2628 214.812 20.2618 214.612 20.061C213.571 19.0156 212.131 18.3698 210.54 18.3696H210.539C209.782 18.3686 209.033 18.5178 208.334 18.8081C207.635 19.0984 207.001 19.5243 206.468 20.061C206.268 20.2621 205.942 20.2629 205.741 20.063C205.54 19.8631 205.539 19.5377 205.739 19.3364C206.368 18.7034 207.116 18.2012 207.94 17.8589C208.764 17.5167 209.648 17.3412 210.54 17.3423L210.89 17.3511Z" fill="#98A2B3"/>
</g>
<path fill-rule="evenodd" clip-rule="evenodd" d="M196.923 16.7765C197.07 16.705 197.245 16.7204 197.376 16.8164L200.154 18.8526C200.265 18.9335 200.329 19.0612 200.327 19.1962C200.325 19.3311 200.258 19.457 200.145 19.535L197.701 21.2266L200.145 22.9181C200.258 22.9961 200.325 23.1221 200.327 23.257C200.329 23.392 200.265 23.5196 200.154 23.6006L197.376 25.6368C197.245 25.7328 197.07 25.7482 196.923 25.6767C196.777 25.6051 196.685 25.4589 196.685 25.2989V21.9301L194.588 23.3811C194.393 23.516 194.124 23.471 193.986 23.2806C193.848 23.0903 193.894 22.8267 194.089 22.6919L196.206 21.2266L194.089 19.7613C193.894 19.6265 193.848 19.3629 193.986 19.1726C194.124 18.9822 194.393 18.9372 194.588 19.072L196.685 20.523V17.1543C196.685 16.9943 196.777 16.8481 196.923 16.7765ZM197.549 22.1564L199.161 23.2725L197.549 24.4543V22.1564ZM197.549 20.2968V17.9989L199.161 19.1807L197.549 20.2968Z" fill="#98A2B3"/>
<path fill-rule="evenodd" clip-rule="evenodd" d="M233.173 18.2791C233.444 18.0082 233.812 17.856 234.195 17.856H239.974C240.357 17.856 240.724 18.0082 240.995 18.2791C241.266 18.55 241.418 18.9175 241.418 19.3007V19.3833C241.62 19.4544 241.804 19.57 241.958 19.7238C242.229 19.9947 242.381 20.3622 242.381 20.7454V21.7085C242.381 22.0917 242.229 22.4591 241.958 22.7301C241.804 22.8839 241.62 22.9994 241.418 23.0706V23.1532C241.418 23.5364 241.266 23.9039 240.995 24.1748C240.724 24.4457 240.357 24.5979 239.974 24.5979H234.195C233.812 24.5979 233.444 24.4457 233.173 24.1748C232.902 23.9039 232.75 23.5364 232.75 23.1532V19.3007C232.75 18.9175 232.902 18.55 233.173 18.2791ZM234.195 18.8191C234.067 18.8191 233.945 18.8698 233.854 18.9601C233.764 19.0505 233.713 19.1729 233.713 19.3007V23.1532C233.713 23.2809 233.764 23.4034 233.854 23.4938C233.945 23.5841 234.067 23.6348 234.195 23.6348H239.974C240.101 23.6348 240.224 23.5841 240.314 23.4938C240.404 23.4034 240.455 23.2809 240.455 23.1532V22.6717C240.455 22.4057 240.671 22.1901 240.937 22.1901C241.064 22.1901 241.187 22.1394 241.277 22.049C241.368 21.9587 241.418 21.8362 241.418 21.7085V20.7454C241.418 20.6177 241.368 20.4952 241.277 20.4049C241.187 20.3145 241.064 20.2638 240.937 20.2638C240.671 20.2638 240.455 20.0482 240.455 19.7822V19.3007C240.455 19.1729 240.404 19.0505 240.314 18.9601C240.224 18.8698 240.101 18.8191 239.974 18.8191H234.195ZM235.158 19.7822C235.424 19.7822 235.639 19.9978 235.639 20.2638V22.1901C235.639 22.4561 235.424 22.6717 235.158 22.6717C234.892 22.6717 234.676 22.4561 234.676 22.1901V20.2638C234.676 19.9978 234.892 19.7822 235.158 19.7822ZM237.084 19.7822C237.35 19.7822 237.566 19.9978 237.566 20.2638V22.1901C237.566 22.4561 237.35 22.6717 237.084 22.6717C236.818 22.6717 236.603 22.4561 236.603 22.1901V20.2638C236.603 19.9978 236.818 19.7822 237.084 19.7822ZM239.01 19.7822C239.276 19.7822 239.492 19.9978 239.492 20.2638V22.1901C239.492 22.4561 239.276 22.6717 239.01 22.6717C238.744 22.6717 238.529 22.4561 238.529 22.1901V20.2638C238.529 19.9978 238.744 19.7822 239.01 19.7822Z" fill="#98A2B3"/>
<rect x="128.543" y="15.4858" width="6.19429" height="6.19429" rx="3.09714" fill="#98A2B3"/>
<defs>
<clipPath id="clip0_13661_143897">
<rect width="92.9143" height="92.9143" fill="white" transform="translate(-49.75 -81.2998)"/>
</clipPath>
<clipPath id="clip1_13661_143897">
<rect width="92.9143" height="92.9143" fill="white" transform="translate(-49.75 11.6143)"/>
</clipPath>
<clipPath id="clip2_13661_143897">
<rect width="92.9143" height="92.9143" fill="white" transform="translate(-49.75 104.529)"/>
</clipPath>
<clipPath id="clip3_13661_143897">
<rect width="92.9143" height="92.9143" fill="white" transform="translate(-49.75 197.443)"/>
</clipPath>
<clipPath id="clip4_13661_143897">
<rect width="92.9143" height="92.9143" fill="white" transform="translate(-49.75 290.357)"/>
</clipPath>
<clipPath id="clip5_13661_143897">
<rect width="92.9143" height="92.9143" fill="white" transform="translate(-49.75 383.271)"/>
</clipPath>
<clipPath id="clip6_13661_143897">
<rect width="92.9143" height="92.9143" fill="white" transform="translate(-49.75 476.186)"/>
</clipPath>
<clipPath id="clip7_13661_143897">
<rect width="92.9143" height="92.9143" fill="white" transform="translate(43.1641 -81.2998)"/>
</clipPath>
<clipPath id="clip8_13661_143897">
<rect width="92.9143" height="92.9143" fill="white" transform="translate(43.1641 11.6143)"/>
</clipPath>
<clipPath id="clip9_13661_143897">
<rect width="92.9143" height="92.9143" fill="white" transform="translate(43.1641 104.529)"/>
</clipPath>
<clipPath id="clip10_13661_143897">
<rect width="92.9143" height="92.9143" fill="white" transform="translate(43.1641 197.443)"/>
</clipPath>
<clipPath id="clip11_13661_143897">
<rect width="92.9143" height="92.9143" fill="white" transform="translate(43.1641 290.357)"/>
</clipPath>
<clipPath id="clip12_13661_143897">
<rect width="92.9143" height="92.9143" fill="white" transform="translate(43.1641 383.271)"/>
</clipPath>
<clipPath id="clip13_13661_143897">
<rect width="92.9143" height="92.9143" fill="white" transform="translate(43.1641 476.186)"/>
</clipPath>
<clipPath id="clip14_13661_143897">
<rect width="92.9143" height="92.9143" fill="white" transform="translate(136.08 -81.2998)"/>
</clipPath>
<clipPath id="clip15_13661_143897">
<rect width="92.9143" height="92.9143" fill="white" transform="translate(136.08 11.6143)"/>
</clipPath>
<clipPath id="clip16_13661_143897">
<rect width="92.9143" height="92.9143" fill="white" transform="translate(136.08 104.529)"/>
</clipPath>
<clipPath id="clip17_13661_143897">
<rect width="92.9143" height="92.9143" fill="white" transform="translate(136.08 197.443)"/>
</clipPath>
<clipPath id="clip18_13661_143897">
<rect width="92.9143" height="92.9143" fill="white" transform="translate(136.08 290.357)"/>
</clipPath>
<clipPath id="clip19_13661_143897">
<rect width="92.9143" height="92.9143" fill="white" transform="translate(136.08 383.271)"/>
</clipPath>
<clipPath id="clip20_13661_143897">
<rect width="92.9143" height="92.9143" fill="white" transform="translate(136.08 476.186)"/>
</clipPath>
<clipPath id="clip21_13661_143897">
<rect width="92.9143" height="92.9143" fill="white" transform="translate(228.994 -81.2998)"/>
</clipPath>
<clipPath id="clip22_13661_143897">
<rect width="92.9143" height="92.9143" fill="white" transform="translate(228.994 11.6143)"/>
</clipPath>
<clipPath id="clip23_13661_143897">
<rect width="92.9143" height="92.9143" fill="white" transform="translate(228.994 104.529)"/>
</clipPath>
<clipPath id="clip24_13661_143897">
<rect width="92.9143" height="92.9143" fill="white" transform="translate(228.994 197.443)"/>
</clipPath>
<clipPath id="clip25_13661_143897">
<rect width="92.9143" height="92.9143" fill="white" transform="translate(228.994 290.357)"/>
</clipPath>
<clipPath id="clip26_13661_143897">
<rect width="92.9143" height="92.9143" fill="white" transform="translate(228.994 383.271)"/>
</clipPath>
<clipPath id="clip27_13661_143897">
<rect width="92.9143" height="92.9143" fill="white" transform="translate(228.994 476.186)"/>
</clipPath>
<clipPath id="clip28_13661_143897">
<rect x="13.0312" y="8.51709" width="243.871" height="528.063" rx="23.2286" fill="white"/>
</clipPath>
<clipPath id="clip29_13661_143897">
<rect x="176.076" y="15.4482" width="11.8287" height="11.5577" rx="1.54857" fill="white"/>
</clipPath>
<clipPath id="clip30_13661_143897">
<rect x="203.676" y="15.4482" width="11.8287" height="11.5577" rx="1.54857" fill="white"/>
</clipPath>
</defs>
</svg>
